<svg version="1.1" id="Layer_1" xmlns="http://www.w3.org/2000/svg" xmlns:xlink="http://www.w3.org/1999/xlink" x="0px" y="0px"
	 width="100%" viewBox="0 0 834 441" enable-background="new 0 0 834 441" xml:space="preserve">
<path fill="#0E0E0E" opacity="1.000000" stroke="none" 
	d="
M492.000000,442.000000 
	C328.000000,442.000000 164.500000,442.000000 1.000000,442.000000 
	C1.000000,295.000000 1.000000,148.000000 1.000000,1.000000 
	C279.000000,1.000000 557.000000,1.000000 835.000000,1.000000 
	C835.000000,148.000000 835.000000,295.000000 835.000000,442.000000 
	C720.833313,442.000000 606.666687,442.000000 492.000000,442.000000 
M602.500000,293.006653 
	C630.258972,293.006653 658.017883,293.006653 685.698486,293.006653 
	C685.698486,241.673660 685.698486,190.942123 685.698486,140.293884 
	C505.002472,140.293884 324.614655,140.293884 144.301575,140.293884 
	C144.301575,191.326553 144.301575,242.058090 144.301575,293.006653 
	C296.906464,293.006653 449.203247,293.006653 602.500000,293.006653 
z"/>
<path fill="#E3E3E3" opacity="1.000000" stroke="none" 
	d="
M602.000000,293.006653 
	C449.203247,293.006653 296.906464,293.006653 144.301575,293.006653 
	C144.301575,242.058090 144.301575,191.326553 144.301575,140.293884 
	C324.614655,140.293884 505.002472,140.293884 685.698486,140.293884 
	C685.698486,190.942123 685.698486,241.673660 685.698486,293.006653 
	C658.017883,293.006653 630.258972,293.006653 602.000000,293.006653 
M321.730896,256.910339 
	C321.751160,261.215118 321.778259,265.519836 321.789978,269.824646 
	C321.804260,275.066101 323.172455,276.492493 328.528473,276.587128 
	C332.337341,276.654419 336.154297,276.695740 339.955048,276.501953 
	C340.973724,276.450012 341.946289,275.494324 343.184448,274.051727 
	C343.235321,269.223969 343.327148,264.396149 343.322449,259.568420 
	C343.319427,256.449860 344.674896,255.053391 347.886444,255.152573 
	C352.543915,255.296402 357.209290,255.177139 361.871307,255.181427 
	C374.894073,255.193390 374.772644,255.198914 374.423584,242.156723 
	C374.331604,238.718506 372.946381,237.942291 369.903442,238.002594 
	C363.579315,238.127884 357.250336,238.006592 350.923370,237.994019 
	C343.359589,237.978989 343.370636,237.982208 343.285461,230.158905 
	C343.189514,221.342377 343.071075,212.526108 343.119202,203.037094 
	C342.717102,201.972092 342.315002,200.907104 342.039917,198.932312 
	C342.039917,185.989410 342.039917,173.046524 342.039917,159.602005 
	C332.135498,159.602005 322.834839,159.747864 313.542480,159.533844 
	C309.541718,159.441696 307.389191,160.760208 305.677277,164.574692 
	C294.745422,188.933029 283.508392,213.154297 272.402069,237.434525 
	C270.160156,242.335724 268.048096,247.296295 265.461334,253.171753 
	C270.540680,253.171753 274.642395,253.134338 278.743164,253.182022 
	C283.066895,253.232300 287.389679,253.363815 292.133636,254.147522 
	C294.210266,254.492599 296.277161,255.049286 298.365234,255.145004 
	C306.136078,255.501160 313.913849,255.705856 321.730896,256.910339 
M662.253052,205.710434 
	C661.773315,202.760162 661.461304,199.770813 660.784180,196.866562 
	C658.232605,185.922333 653.653748,176.182617 644.266602,169.277924 
	C636.538208,163.593262 627.919250,160.285324 618.374084,160.065399 
	C606.104187,159.782700 593.822815,159.996628 581.256042,159.996628 
	C581.256042,198.161377 581.256042,236.082413 581.256042,273.876465 
	C594.203735,273.876465 607.079895,274.852814 619.748108,273.646240 
	C638.457825,271.864197 651.076477,260.942383 657.981689,243.579315 
	C662.705933,231.700134 662.713257,219.190323 662.253052,205.710434 
M462.214081,203.601135 
	C464.311768,195.190826 462.870178,187.004089 459.878204,179.189789 
	C455.089966,166.684067 444.578064,161.389755 432.219757,160.319504 
	C419.977722,159.259323 407.602905,159.800690 395.293640,159.408966 
	C391.502014,159.288300 390.529999,160.630890 390.547424,164.311676 
	C390.714569,199.606384 390.700134,234.901947 390.754456,270.197235 
	C390.756409,271.475281 390.931488,272.753052 391.025177,274.021484 
	C397.538055,274.021484 403.722595,274.021484 410.491638,274.021484 
	C410.491638,260.362396 410.491638,247.177917 410.491638,233.993454 
	C412.848907,234.983704 414.177979,236.335007 415.261597,237.860657 
	C422.962250,248.702957 430.564240,259.615814 438.331360,270.409973 
	C439.498657,272.032166 441.298492,274.221588 442.916931,274.320007 
	C449.982361,274.749725 457.088776,274.504852 465.062653,274.504852 
	C455.001617,260.840149 445.546387,247.998245 435.927826,234.934540 
	C439.908630,233.014694 443.013184,231.802734 445.827301,230.108429 
	C455.487579,224.292221 460.056335,215.166351 462.214081,203.601135 
M566.677368,269.928223 
	C551.112427,232.699020 535.547546,195.469818 519.982666,158.240616 
	C519.520508,158.347092 519.058411,158.453568 518.596252,158.560028 
	C502.648224,196.982040 486.700165,235.404053 470.489075,274.459747 
	C477.060608,274.459747 482.706543,274.255554 488.327209,274.544006 
	C491.232880,274.693146 492.630798,273.507477 493.482391,271.057678 
	C494.570343,267.927826 495.660248,264.798615 496.760681,261.673126 
	C497.802979,258.712830 499.511749,257.304962 503.035767,257.451447 
	C510.849213,257.776215 518.686646,257.522217 526.514282,257.509491 
	C541.046753,257.485870 540.997314,257.505951 546.090576,271.104095 
	C546.584595,272.423096 548.131226,274.224762 549.265137,274.281342 
	C555.497681,274.592468 561.753784,274.429871 568.368958,274.429871 
	C567.732300,272.773895 567.330627,271.729218 566.677368,269.928223 
M226.895706,183.500031 
	C226.875015,202.816437 226.922256,222.133270 226.802994,241.449081 
	C226.749039,250.185989 222.550568,255.861389 214.475281,258.890869 
	C208.989594,260.948853 203.724289,260.223907 198.459320,258.003845 
	C197.288284,257.510040 195.285233,257.106506 194.572342,257.718323 
	C190.341919,261.349060 186.378387,265.290771 181.940536,269.492035 
	C192.356583,276.114502 203.119370,278.027100 214.150803,276.502319 
	C226.948456,274.733398 238.623428,269.884247 243.444443,256.524780 
	C245.829834,249.914642 247.370041,242.650574 247.517212,235.645065 
	C248.020752,211.676117 247.741791,187.690659 247.741516,163.711487 
	C247.741516,162.579224 247.551910,161.446945 247.383575,159.565323 
	C241.796326,159.565323 236.343643,159.723267 230.906143,159.504257 
	C227.798126,159.379074 226.809525,160.497681 226.882568,163.517792 
	C227.035507,169.841629 226.908447,176.172241 226.895706,183.500031 
M183.078613,245.512085 
	C185.724564,243.344925 187.508286,241.020386 187.475891,237.141403 
	C187.303741,216.513596 187.482147,195.883118 187.413132,175.253998 
	C187.396194,170.189270 188.791412,163.099075 186.120407,160.616638 
	C183.293686,157.989487 176.385101,159.853867 171.271652,159.550339 
	C168.192322,159.367538 167.243347,160.573517 167.276428,163.584000 
	C167.567047,190.032013 167.629684,216.483170 168.064713,242.928375 
	C168.135544,247.233383 169.702408,251.513794 170.835739,257.070251 
	C175.391388,252.787857 178.984543,249.410217 183.078613,245.512085 
z"/>
<path fill="#070707" opacity="1.000000" stroke="none" 
	d="
M662.259277,206.188858 
	C662.713257,219.190323 662.705933,231.700134 657.981689,243.579315 
	C651.076477,260.942383 638.457825,271.864197 619.748108,273.646240 
	C607.079895,274.852814 594.203735,273.876465 581.256042,273.876465 
	C581.256042,236.082413 581.256042,198.161377 581.256042,159.996628 
	C593.822815,159.996628 606.104187,159.782700 618.374084,160.065399 
	C627.919250,160.285324 636.538208,163.593262 644.266602,169.277924 
	C653.653748,176.182617 658.232605,185.922333 660.784180,196.866562 
	C661.461304,199.770813 661.773315,202.760162 662.259277,206.188858 
M641.721802,205.188766 
	C641.421814,203.890488 641.157959,202.582642 640.816223,201.295456 
	C638.434387,192.322571 635.179871,183.908630 626.729675,178.692322 
	C620.605591,174.911957 613.846069,174.872971 606.965759,174.759216 
	C602.856445,174.691269 601.616394,175.816437 601.655762,180.066422 
	C601.868774,203.053406 601.744629,226.043533 601.735229,249.032578 
	C601.730896,259.650543 601.114868,258.002533 610.943054,257.701385 
	C626.314270,257.230408 636.807983,248.950790 639.741333,233.740219 
	C641.481384,224.717773 641.219910,215.309326 641.721802,205.188766 
z"/>
<path fill="#070707" opacity="1.000000" stroke="none" 
	d="
M462.121582,204.023804 
	C460.056335,215.166351 455.487579,224.292221 445.827301,230.108429 
	C443.013184,231.802734 439.908630,233.014694 435.927826,234.934540 
	C445.546387,247.998245 455.001617,260.840149 465.062653,274.504852 
	C457.088776,274.504852 449.982361,274.749725 442.916931,274.320007 
	C441.298492,274.221588 439.498657,272.032166 438.331360,270.409973 
	C430.564240,259.615814 422.962250,248.702957 415.261597,237.860657 
	C414.177979,236.335007 412.848907,234.983704 410.491638,233.993454 
	C410.491638,247.177917 410.491638,260.362396 410.491638,274.021484 
	C403.722595,274.021484 397.538055,274.021484 391.025177,274.021484 
	C390.931488,272.753052 390.756409,271.475281 390.754456,270.197235 
	C390.700134,234.901947 390.714569,199.606384 390.547424,164.311676 
	C390.529999,160.630890 391.502014,159.288300 395.293640,159.408966 
	C407.602905,159.800690 419.977722,159.259323 432.219757,160.319504 
	C444.578064,161.389755 455.089966,166.684067 459.878204,179.189789 
	C462.870178,187.004089 464.311768,195.190826 462.121582,204.023804 
M433.008545,177.203094 
	C426.465729,176.419861 419.933807,175.485352 413.368591,175.014236 
	C412.368347,174.942459 410.289337,177.002106 410.271362,178.101440 
	C410.045502,191.922287 410.058746,205.748276 410.180969,219.571426 
	C410.191498,220.762024 411.380341,222.950897 412.074158,222.972198 
	C419.822388,223.210190 427.771606,224.338638 434.348846,218.395264 
	C441.099976,212.294754 443.130615,204.543091 442.696625,195.893555 
	C442.327789,188.541855 440.836823,181.636154 433.008545,177.203094 
z"/>
<path fill="#080808" opacity="1.000000" stroke="none" 
	d="
M566.803162,270.306366 
	C567.330627,271.729218 567.732300,272.773895 568.368958,274.429871 
	C561.753784,274.429871 555.497681,274.592468 549.265137,274.281342 
	C548.131226,274.224762 546.584595,272.423096 546.090576,271.104095 
	C540.997314,257.505951 541.046753,257.485870 526.514282,257.509491 
	C518.686646,257.522217 510.849213,257.776215 503.035767,257.451447 
	C499.511749,257.304962 497.802979,258.712830 496.760681,261.673126 
	C495.660248,264.798615 494.570343,267.927826 493.482391,271.057678 
	C492.630798,273.507477 491.232880,274.693146 488.327209,274.544006 
	C482.706543,274.255554 477.060608,274.459747 470.489075,274.459747 
	C486.700165,235.404053 502.648224,196.982040 518.596252,158.560028 
	C519.058411,158.453568 519.520508,158.347092 519.982666,158.240616 
	C535.547546,195.469818 551.112427,232.699020 566.803162,270.306366 
M520.495667,242.853409 
	C523.661316,242.860123 526.827148,242.894791 529.992493,242.867035 
	C534.736450,242.825470 535.132874,241.965286 533.432434,237.552658 
	C529.499451,227.346771 525.788391,217.055557 521.937012,206.817886 
	C521.286499,205.088623 520.384888,203.453781 519.567322,201.707047 
	C518.645752,202.256729 518.212646,202.358444 518.130737,202.586349 
	C513.710388,214.887741 509.333160,227.204620 504.914673,239.506699 
	C503.987915,242.087006 505.185242,242.860611 507.507446,242.856659 
	C511.506256,242.849869 515.505066,242.854004 520.495667,242.853409 
z"/>
<path fill="#090909" opacity="1.000000" stroke="none" 
	d="
M226.896027,183.000046 
	C226.908447,176.172241 227.035507,169.841629 226.882568,163.517792 
	C226.809525,160.497681 227.798126,159.379074 230.906143,159.504257 
	C236.343643,159.723267 241.796326,159.565323 247.383575,159.565323 
	C247.551910,161.446945 247.741516,162.579224 247.741516,163.711487 
	C247.741791,187.690659 248.020752,211.676117 247.517212,235.645065 
	C247.370041,242.650574 245.829834,249.914642 243.444443,256.524780 
	C238.623428,269.884247 226.948456,274.733398 214.150803,276.502319 
	C203.119370,278.027100 192.356583,276.114502 181.940536,269.492035 
	C186.378387,265.290771 190.341919,261.349060 194.572342,257.718323 
	C195.285233,257.106506 197.288284,257.510040 198.459320,258.003845 
	C203.724289,260.223907 208.989594,260.948853 214.475281,258.890869 
	C222.550568,255.861389 226.749039,250.185989 226.802994,241.449081 
	C226.922256,222.133270 226.875015,202.816437 226.896027,183.000046 
z"/>
<path fill="#090707" opacity="1.000000" stroke="none" 
	d="
M291.712860,253.459839 
	C287.389679,253.363815 283.066895,253.232300 278.743164,253.182022 
	C274.642395,253.134338 270.540680,253.171753 265.461334,253.171753 
	C268.048096,247.296295 270.160156,242.335724 272.402069,237.434525 
	C283.508392,213.154297 294.745422,188.933029 305.677277,164.574692 
	C307.389191,160.760208 309.541718,159.441696 313.542480,159.533844 
	C322.834839,159.747864 332.135498,159.602005 342.039917,159.602005 
	C342.039917,173.046524 342.039917,185.989410 341.513489,199.399094 
	C335.044220,199.918411 329.101318,199.970947 323.091675,199.554688 
	C323.024872,190.436218 323.024872,181.786545 323.024872,173.136871 
	C322.545013,173.032455 322.065155,172.928024 321.585297,172.823608 
	C321.005707,173.842392 320.306519,174.812073 319.864746,175.887466 
	C314.771729,188.285034 309.751831,200.712708 304.641174,213.102966 
	C301.302795,221.196579 297.847900,229.242111 294.074097,237.470779 
	C293.075531,239.167511 292.029877,240.669281 291.904266,242.244431 
	C291.607605,245.964325 291.748749,249.719147 291.712860,253.459839 
z"/>
<path fill="#F21D1D" opacity="1.000000" stroke="none" 
	d="
M291.923248,253.803680 
	C291.748749,249.719147 291.607605,245.964325 291.904266,242.244431 
	C292.029877,240.669281 293.075531,239.167511 294.573059,237.639343 
	C301.887817,237.753464 308.334015,237.984741 314.776550,237.908966 
	C317.496124,237.876999 320.208069,237.198120 323.302429,236.735474 
	C324.095032,234.986465 324.836151,233.321152 324.866364,231.643051 
	C325.006287,223.871445 324.735748,216.086243 325.102264,208.329056 
	C325.201782,206.222931 326.957642,202.465469 328.044281,202.432159 
	C332.999237,202.280182 337.986664,203.184875 342.962402,203.709717 
	C343.071075,212.526108 343.189514,221.342377 343.285461,230.158905 
	C343.370636,237.982208 343.359589,237.978989 350.923370,237.994019 
	C357.250336,238.006592 363.579315,238.127884 369.903442,238.002594 
	C372.946381,237.942291 374.331604,238.718506 374.423584,242.156723 
	C374.772644,255.198914 374.894073,255.193390 361.871307,255.181427 
	C357.209290,255.177139 352.543915,255.296402 347.886444,255.152573 
	C344.674896,255.053391 343.319427,256.449860 343.322449,259.568420 
	C343.327148,264.396149 343.235321,269.223969 342.598145,274.506256 
	C338.023315,275.002045 334.029266,274.927185 330.048004,275.118927 
	C326.467224,275.291382 324.805359,273.919128 324.969910,270.213257 
	C325.124512,266.730286 325.282288,263.192505 324.815369,259.763702 
	C324.627228,258.381989 322.780762,257.226105 321.689026,255.967422 
	C313.913849,255.705856 306.136078,255.501160 298.365234,255.145004 
	C296.277161,255.049286 294.210266,254.492599 291.923248,253.803680 
z"/>
<path fill="#080808" opacity="1.000000" stroke="none" 
	d="
M182.828156,245.772324 
	C178.984543,249.410217 175.391388,252.787857 170.835739,257.070251 
	C169.702408,251.513794 168.135544,247.233383 168.064713,242.928375 
	C167.629684,216.483170 167.567047,190.032013 167.276428,163.584000 
	C167.243347,160.573517 168.192322,159.367538 171.271652,159.550339 
	C176.385101,159.853867 183.293686,157.989487 186.120407,160.616638 
	C188.791412,163.099075 187.396194,170.189270 187.413132,175.253998 
	C187.482147,195.883118 187.303741,216.513596 187.475891,237.141403 
	C187.508286,241.020386 185.724564,243.344925 182.828156,245.772324 
z"/>
<path fill="#7A2526" opacity="1.000000" stroke="none" 
	d="
M343.040802,203.373413 
	C337.986664,203.184875 332.999237,202.280182 328.044281,202.432159 
	C326.957642,202.465469 325.201782,206.222931 325.102264,208.329056 
	C324.735748,216.086243 325.006287,223.871445 324.866364,231.643051 
	C324.836151,233.321152 324.095032,234.986465 323.267273,236.287354 
	C322.954926,223.952530 323.056702,211.988007 323.158447,200.023483 
	C329.101318,199.970947 335.044220,199.918411 341.449982,199.853989 
	C342.315002,200.907104 342.717102,201.972092 343.040802,203.373413 
z"/>
<path fill="#8E262A" opacity="1.000000" stroke="none" 
	d="
M321.709961,256.438873 
	C322.780762,257.226105 324.627228,258.381989 324.815369,259.763702 
	C325.282288,263.192505 325.124512,266.730286 324.969910,270.213257 
	C324.805359,273.919128 326.467224,275.291382 330.048004,275.118927 
	C334.029266,274.927185 338.023315,275.002045 342.475922,274.957153 
	C341.946289,275.494324 340.973724,276.450012 339.955048,276.501953 
	C336.154297,276.695740 332.337341,276.654419 328.528473,276.587128 
	C323.172455,276.492493 321.804260,275.066101 321.789978,269.824646 
	C321.778259,265.519836 321.751160,261.215118 321.709961,256.438873 
z"/>
<path fill="#E2E2E2" opacity="1.000000" stroke="none" 
	d="
M641.790039,205.631592 
	C641.219910,215.309326 641.481384,224.717773 639.741333,233.740219 
	C636.807983,248.950790 626.314270,257.230408 610.943054,257.701385 
	C601.114868,258.002533 601.730896,259.650543 601.735229,249.032578 
	C601.744629,226.043533 601.868774,203.053406 601.655762,180.066422 
	C601.616394,175.816437 602.856445,174.691269 606.965759,174.759216 
	C613.846069,174.872971 620.605591,174.911957 626.729675,178.692322 
	C635.179871,183.908630 638.434387,192.322571 640.816223,201.295456 
	C641.157959,202.582642 641.421814,203.890488 641.790039,205.631592 
z"/>
<path fill="#E0E0E0" opacity="1.000000" stroke="none" 
	d="
M433.337860,177.396088 
	C440.836823,181.636154 442.327789,188.541855 442.696625,195.893555 
	C443.130615,204.543091 441.099976,212.294754 434.348846,218.395264 
	C427.771606,224.338638 419.822388,223.210190 412.074158,222.972198 
	C411.380341,222.950897 410.191498,220.762024 410.180969,219.571426 
	C410.058746,205.748276 410.045502,191.922287 410.271362,178.101440 
	C410.289337,177.002106 412.368347,174.942459 413.368591,175.014236 
	C419.933807,175.485352 426.465729,176.419861 433.337860,177.396088 
z"/>
<path fill="#DBDBDB" opacity="1.000000" stroke="none" 
	d="
M519.999756,242.853470 
	C515.505066,242.854004 511.506256,242.849869 507.507446,242.856659 
	C505.185242,242.860611 503.987915,242.087006 504.914673,239.506699 
	C509.333160,227.204620 513.710388,214.887741 518.130737,202.586349 
	C518.212646,202.358444 518.645752,202.256729 519.567322,201.707047 
	C520.384888,203.453781 521.286499,205.088623 521.937012,206.817886 
	C525.788391,217.055557 529.499451,227.346771 533.432434,237.552658 
	C535.132874,241.965286 534.736450,242.825470 529.992493,242.867035 
	C526.827148,242.894791 523.661316,242.860123 519.999756,242.853470 
z"/>
<path fill="#E1DEDE" opacity="1.000000" stroke="none" 
	d="
M323.091675,199.554688 
	C323.056702,211.988007 322.954926,223.952530 322.888306,236.365173 
	C320.208069,237.198120 317.496124,237.876999 314.776550,237.908966 
	C308.334015,237.984741 301.887817,237.753464 294.944153,237.477737 
	C297.847900,229.242111 301.302795,221.196579 304.641174,213.102966 
	C309.751831,200.712708 314.771729,188.285034 319.864746,175.887466 
	C320.306519,174.812073 321.005707,173.842392 321.585297,172.823608 
	C322.065155,172.928024 322.545013,173.032455 323.024872,173.136871 
	C323.024872,181.786545 323.024872,190.436218 323.091675,199.554688 
z"/>
</svg>